<svg width="40" height="40" viewBox="0 0 40 40" fill="none" xmlns="http://www.w3.org/2000/svg">
    <path d="M37.3195 18.397L21.6028 2.68102C20.6979 1.77568 19.23 1.77568 18.3242 2.68102L15.0609 5.9451L19.2006 10.0848C20.1627 9.7596 21.2659 9.9778 22.0326 10.7449C22.8039 11.5166 23.0202 12.6292 22.6868 13.5949L26.6772 17.5849C27.6428 17.2519 28.7562 17.4673 29.5272 18.2395C30.6045 19.3168 30.6045 21.0624 29.5272 22.1405C28.4491 23.2183 26.7034 23.2183 25.6249 22.1405C24.8148 21.3296 24.6142 20.1387 25.0252 19.1405L21.3035 15.4192V25.2119C21.566 25.3419 21.814 25.5151 22.0326 25.7337C23.1099 26.811 23.1099 28.5567 22.0326 29.6352C20.9552 30.7121 19.2084 30.7121 18.1319 29.6352C17.0546 28.5563 17.0546 26.8106 18.1319 25.7337C18.3983 25.4677 18.7066 25.2663 19.0357 25.1316V15.2477C18.7066 15.1129 18.3991 14.9135 18.1319 14.6455C17.3159 13.8299 17.1196 12.6319 17.538 11.6298L13.4571 7.54815L2.67998 18.3241C1.77464 19.2302 1.77464 20.6981 2.67998 21.6035L18.3975 37.3198C19.3024 38.2251 22 38 24 38H36C37.1046 38 38 37.1046 38 36V23C38 22 38.2249 19.3023 37.3195 18.397Z" fill="url(#paint0_linear_201_7)"/>
    <defs>
        <linearGradient id="paint0_linear_201_7" x1="24" y1="11" x2="34.5" y2="40" gradientUnits="userSpaceOnUse">
            <stop offset="0.161458" stop-color="#F05133"/>
            <stop offset="0.444382" stop-color="#E66240"/>
            <stop offset="1" stop-color="#F8AA7E"/>
        </linearGradient>
    </defs>
</svg>