<svg width="16" height="16" viewBox="0 0 16 16" fill="none" xmlns="http://www.w3.org/2000/svg">
    <g clip-path="url(#clip0_625_15)">
        <path d="M14.9277 7.35878L8.64102 1.07238C8.27906 0.710247 7.6919 0.710247 7.32958 1.07238L6.02426 2.37802L7.68014 4.0339C8.06498 3.90382 8.50626 3.9911 8.81294 4.29794C9.12146 4.60662 9.20798 5.05166 9.07462 5.43794L10.6708 7.03394C11.057 6.90074 11.5024 6.9869 11.8108 7.29578C12.2417 7.7267 12.2417 8.42494 11.8108 8.85618C11.3795 9.2873 10.6813 9.2873 10.2499 8.85618C9.92582 8.53182 9.84558 8.05546 10.01 7.65618L8.5213 6.16766V10.0847C8.6263 10.1367 8.7255 10.206 8.81294 10.2935C9.24386 10.7244 9.24386 11.4227 8.81294 11.8541C8.38198 12.2848 7.68326 12.2848 7.25266 11.8541C6.82174 11.4225 6.82174 10.7242 7.25266 10.2935C7.35922 10.1871 7.48254 10.1065 7.61418 10.0526V6.09906C7.48254 6.04514 7.35954 5.96538 7.25266 5.85818C6.92626 5.53194 6.84774 5.05274 7.0151 4.6519L5.38274 3.01924L1.07189 7.32962C0.709759 7.69206 0.709759 8.27922 1.07189 8.64138L7.3589 14.9279C7.72086 15.29 8.7999 15.2 9.5999 15.2H14.3999C14.8417 15.2 15.1999 14.8418 15.1999 14.4V9.19998C15.1999 8.79998 15.2899 7.7209 14.9277 7.35878Z" fill="url(#paint0_linear_625_15)"/>
    </g>
    <defs>
        <linearGradient id="paint0_linear_625_15" x1="9.5999" y1="4.39997" x2="13.7999" y2="16" gradientUnits="userSpaceOnUse">
            <stop offset="0.161458" stop-color="#F05133"/>
            <stop offset="0.444382" stop-color="#E66240"/>
            <stop offset="1" stop-color="#F8AA7E"/>
        </linearGradient>
        <clipPath id="clip0_625_15">
            <rect width="16" height="16" fill="white"/>
        </clipPath>
    </defs>
</svg>
